<svg id="svg" xmlns="http://www.w3.org/2000/svg" xmlns:xlink="http://www.w3.org/1999/xlink" width="400" height="400" viewBox="0, 0, 400,400" version="1.1"><g id="svgg"><path id="path0" d="M183.796 41.055 C 76.067 51.093,10.876 170.730,59.191 269.727 C 114.643 383.345,270.232 390.025,334.997 281.569 C 384.258 199.077,348.855 89.568,260.963 52.564 C 238.207 42.984,209.328 38.677,183.796 41.055 M212.305 49.631 C 301.679 57.336,363.212 140.234,345.666 229.297 C 325.192 333.221,206.606 384.159,119.531 326.432 C 39.228 273.194,28.296 158.336,97.121 90.987 C 122.569 66.085,151.068 53.163,188.672 49.478 C 191.938 49.158,208.024 49.262,212.305 49.631 M194.818 82.520 C 159.071 117.710,150.858 154.174,172.024 183.721 C 177.890 191.908,189.114 203.095,192.286 203.915 C 193.199 204.150,194.253 204.433,194.629 204.542 C 195.277 204.730,195.313 202.638,195.313 164.486 L 195.313 124.231 196.419 122.993 C 198.207 120.991,201.431 120.885,203.312 122.765 L 204.688 124.141 204.688 164.414 C 204.688 192.455,204.813 204.688,205.100 204.688 C 210.943 204.688,227.760 186.535,233.780 173.730 C 246.991 145.628,237.409 114.935,205.374 82.736 C 199.765 77.099,200.313 77.110,194.818 82.520 M84.766 171.060 C 82.953 171.253,82.599 171.420,82.498 172.128 C 82.043 175.316,86.553 199.507,89.259 208.398 C 100.603 245.666,129.488 268.119,161.914 264.875 C 168.351 264.231,176.953 262.055,176.953 261.071 C 176.953 260.535,137.573 224.329,121.225 209.835 C 113.283 202.793,112.704 201.417,116.383 198.322 C 119.411 195.773,118.803 195.351,140.971 215.394 C 148.359 222.074,158.490 231.230,163.484 235.742 C 168.478 240.254,174.434 245.685,176.720 247.810 C 179.006 249.936,180.963 251.589,181.068 251.484 C 181.752 250.800,182.149 242.675,181.721 238.132 C 178.367 202.545,154.653 179.337,114.453 172.300 C 106.121 170.842,92.241 170.262,84.766 171.060 M294.531 171.120 C 264.815 174.366,239.812 187.769,228.463 206.536 C 220.670 219.423,216.660 237.174,218.625 250.086 C 218.903 251.912,218.343 252.304,227.402 243.945 C 237.597 234.537,264.806 209.947,273.047 202.693 C 280.254 196.348,283.363 195.685,285.197 200.101 C 286.425 203.058,286.599 202.836,275.000 213.140 C 259.538 226.876,248.825 236.681,224.835 259.050 L 222.461 261.264 223.974 261.907 C 227.930 263.589,234.585 264.767,241.992 265.097 C 273.375 266.494,301.453 242.624,311.547 205.965 C 315.305 192.317,318.534 172.675,317.234 171.375 C 316.686 170.826,299.034 170.628,294.531 171.120 M194.748 216.504 C 194.666 216.772,193.612 234.219,192.406 255.273 C 191.200 276.328,190.042 296.049,189.833 299.097 C 189.624 302.145,189.453 306.131,189.453 307.955 L 189.453 311.271 190.918 312.486 C 195.528 316.307,205.378 315.961,208.987 311.851 C 210.482 310.149,210.491 311.506,208.787 281.411 C 207.557 259.670,206.255 235.266,205.644 222.461 C 205.302 215.296,205.934 216.016,199.980 216.016 C 196.254 216.016,194.858 216.146,194.748 216.504 " stroke="none" fill="#000000" fill-rule="evenodd"></path></g></svg>